<svg width="250" height="54" viewBox="0 0 250 54" fill="none" xmlns="http://www.w3.org/2000/svg">
<path d="M249.36 24.1244L247.331 27.3805C246.548 26.9153 245.515 26.486 244.519 26.486C243.985 26.486 243.379 26.6291 243.059 26.9511C242.881 27.13 242.739 27.4163 242.739 27.6668C242.739 28.0246 242.988 28.2393 243.237 28.3824C243.593 28.5971 244.127 28.7044 244.768 28.9191L246.121 29.3485C247.011 29.6348 247.936 29.9926 248.755 30.744C249.681 31.6028 250.001 32.5689 250.001 33.7854C250.001 35.8966 249.075 37.2563 248.363 37.9719C246.797 39.5463 244.875 39.7968 243.201 39.7968C241.065 39.7968 238.751 39.3316 236.687 37.5068L238.858 34.0359C239.357 34.4653 240.069 34.9662 240.603 35.2167C241.315 35.5745 242.062 35.7177 242.739 35.7177C243.059 35.7177 243.878 35.7177 244.341 35.3598C244.661 35.1094 244.875 34.7158 244.875 34.3222C244.875 34.0359 244.768 33.6781 244.305 33.3918C243.949 33.1772 243.486 33.034 242.739 32.8193L241.457 32.4257C240.531 32.1395 239.57 31.6385 238.894 30.9587C238.146 30.1715 237.755 29.2769 237.755 28.0604C237.755 26.5217 238.36 25.2336 239.285 24.3748C240.709 23.0509 242.632 22.7646 244.091 22.7646C246.441 22.7646 248.079 23.3729 249.36 24.1244Z" fill="#3D3D3B"/>
<path d="M233.924 24.1244L231.894 27.3805C231.111 26.9153 230.079 26.486 229.082 26.486C228.548 26.486 227.943 26.6291 227.622 26.9511C227.444 27.13 227.302 27.4163 227.302 27.6668C227.302 28.0246 227.551 28.2393 227.8 28.3824C228.156 28.5971 228.69 28.7044 229.331 28.9191L230.684 29.3485C231.574 29.6348 232.5 29.9926 233.318 30.744C234.244 31.6028 234.565 32.5689 234.565 33.7854C234.565 35.8966 233.639 37.2563 232.927 37.9719C231.36 39.5463 229.438 39.7968 227.765 39.7968C225.629 39.7968 223.315 39.3316 221.25 37.5068L223.422 34.0359C223.92 34.4653 224.632 34.9662 225.166 35.2167C225.878 35.5745 226.626 35.7177 227.302 35.7177C227.622 35.7177 228.441 35.7177 228.904 35.3598C229.224 35.1094 229.438 34.7158 229.438 34.3222C229.438 34.0359 229.331 33.6781 228.868 33.3918C228.512 33.1772 228.05 33.034 227.302 32.8193L226.02 32.4257C225.095 32.1395 224.134 31.6385 223.457 30.9587C222.71 30.1715 222.318 29.2769 222.318 28.0604C222.318 26.5217 222.923 25.2336 223.849 24.3748C225.273 23.0509 227.195 22.7646 228.655 22.7646C231.004 22.7646 232.642 23.3729 233.924 24.1244Z" fill="#3D3D3B"/>
<path d="M213.075 25.0905V23.3014H218.201V39.2601H213.075V37.3278C211.686 39.4748 209.693 39.7968 208.375 39.7968C206.097 39.7968 204.175 39.2243 202.43 37.3636C200.757 35.5745 200.116 33.4992 200.116 31.3881C200.116 28.7044 201.113 26.4144 202.573 24.9473C203.961 23.5518 205.883 22.7646 208.091 22.7646C209.443 22.7646 211.615 23.0867 213.075 25.0905ZM209.372 27.2016C208.269 27.2016 207.236 27.6668 206.56 28.3466C206.026 28.8833 205.385 29.8137 205.385 31.2449C205.385 32.6762 205.99 33.6065 206.453 34.1075C207.165 34.8589 208.269 35.3598 209.479 35.3598C210.511 35.3598 211.473 34.9305 212.149 34.2506C212.826 33.6065 213.395 32.6046 213.395 31.2449C213.395 30.0999 212.968 29.0265 212.22 28.3108C211.437 27.5594 210.298 27.2016 209.372 27.2016Z" fill="#3D3D3B"/>
<path d="M191.655 13.1753H196.782V39.2602H191.655V13.1753Z" fill="#3D3D3B"/>
<path d="M187.724 32.1748V38.5082C185.623 39.5817 183.915 39.7964 182.491 39.7964C178.112 39.7964 175.157 38.2935 173.163 36.3255C171.027 34.2502 169.461 31.1014 169.461 27.2727C169.461 23.5156 171.027 20.3668 173.163 18.2915C175.264 16.2519 178.325 14.8564 182.028 14.8564C183.594 14.8564 185.41 15.1785 187.724 16.1804V22.5495C186.513 21.2614 184.698 20.009 182.17 20.009C180.177 20.009 178.575 20.6531 177.329 21.8697C176.011 23.1578 175.086 25.09 175.086 27.3801C175.086 29.849 176.083 31.6023 177.151 32.64C177.649 33.141 179.358 34.6438 182.277 34.6438C183.701 34.6438 185.623 34.2502 187.724 32.1748Z" fill="#3D3D3B"/>
<path d="M155.082 29.098H162.024C161.988 28.9549 161.739 27.953 160.991 27.2374C160.422 26.7006 159.603 26.3428 158.571 26.3428C157.253 26.3428 156.47 26.8796 155.972 27.3805C155.58 27.8099 155.224 28.3824 155.082 29.098ZM166.759 31.6385V32.1753H154.904C154.904 33.034 155.224 34.179 155.865 34.8947C156.648 35.7534 157.716 35.8966 158.499 35.8966C159.247 35.8966 160.03 35.7534 160.564 35.4314C160.635 35.3956 161.241 35.002 161.668 34.1075L166.509 34.6084C165.797 36.8627 164.373 38.0435 163.448 38.616C161.917 39.5463 160.208 39.7968 158.428 39.7968C156.043 39.7968 153.942 39.3674 152.091 37.5068C150.703 36.1113 149.706 34.0001 149.706 31.3523C149.706 29.0622 150.525 26.7006 152.127 25.0547C154.049 23.1225 156.435 22.7646 158.215 22.7646C159.995 22.7646 162.558 23.0867 164.516 25.162C166.403 27.1658 166.759 29.6705 166.759 31.6385Z" fill="#3D3D3B"/>
<path d="M137.349 39.2595V23.3008H142.475V25.8056C142.938 24.911 143.65 24.088 144.469 23.5871C145.323 23.0504 146.213 22.9072 147.21 22.9072C147.851 22.9072 148.314 22.9788 148.883 23.1577L148.598 27.9882C147.922 27.6304 147.174 27.4157 146.284 27.4157C145.181 27.4157 144.362 27.8093 143.721 28.4892C142.582 29.7058 142.475 31.4233 142.475 32.783V39.2595H137.349Z" fill="#3D3D3B"/>
<path d="M117.046 23.3018H122.172V32.1041C122.172 32.8197 122.244 33.929 123.062 34.6804C123.418 35.0024 124.059 35.4318 125.198 35.4318C126.16 35.4318 126.907 35.1098 127.37 34.6804C128.118 33.9647 128.224 32.8913 128.224 32.1041V23.3018H133.351V32.605C133.351 34.4299 133.173 36.1474 131.571 37.7218C129.755 39.5109 127.085 39.7972 125.198 39.7972C123.24 39.7972 120.606 39.5109 118.79 37.7218C117.331 36.2906 117.046 34.6804 117.046 32.9271V23.3018Z" fill="#3D3D3B"/>
<path d="M114.843 27.4522H111.675V39.2602H106.549V27.4522H104.769V23.3015H106.549V18.1489H111.675V23.3015H114.843V27.4522Z" fill="#3D3D3B"/>
<path d="M86.1035 23.3018H91.23V32.1041C91.23 32.8197 91.3012 33.929 92.12 34.6804C92.476 35.0024 93.1168 35.4318 94.256 35.4318C95.2172 35.4318 95.9648 35.1098 96.4276 34.6804C97.1752 33.9647 97.282 32.8913 97.282 32.1041V23.3018H102.408V32.605C102.408 34.4299 102.23 36.1474 100.628 37.7218C98.8128 39.5109 96.1428 39.7972 94.256 39.7972C92.298 39.7972 89.6635 39.5109 87.8479 37.7218C86.3883 36.2906 86.1035 34.6804 86.1035 32.9271V23.3018Z" fill="#3D3D3B"/>
<path d="M83.0188 15.3931V20.0447H75.3291V24.6606H82.4492V29.3122H75.3291V39.2595H69.8467V15.3931H83.0188Z" fill="#3D3D3B"/>
<path d="M0 6.54545C0 2.9305 2.91563 0 6.51225 0H47.2138C50.8104 0 53.726 2.9305 53.726 6.54545V47.4545C53.726 51.0695 50.8104 54 47.2138 54H6.51225C2.91563 54 0 51.0695 0 47.4545V6.54545Z" fill="#3D3D3B"/>
<ellipse cx="26.7008" cy="27.1637" rx="19.5367" ry="19.6364" fill="#F0F0F0"/>
<path fill-rule="evenodd" clip-rule="evenodd" d="M26.7 17.6085C25.6647 17.6085 24.8254 18.4521 24.8254 19.4926H20.0052C20.0052 15.7763 23.0025 12.7637 26.7 12.7637C30.3975 12.7637 33.3948 15.7763 33.3948 19.4926C33.3948 23.209 30.3975 26.2216 26.7 26.2216V21.3768C27.7353 21.3768 28.5745 20.5332 28.5745 19.4926C28.5745 18.4521 27.7353 17.6085 26.7 17.6085ZM36.2066 27.1637C36.2066 26.1231 35.3674 25.2796 34.3321 25.2796V20.4347C38.0296 20.4347 41.0269 23.4474 41.0269 27.1637C41.0269 30.88 38.0296 33.8926 34.3321 33.8926C30.6346 33.8926 27.6373 30.88 27.6373 27.1637H32.4576C32.4576 28.2042 33.2968 29.0478 34.3321 29.0478C35.3674 29.0478 36.2066 28.2042 36.2066 27.1637ZM19.0679 29.0478C18.0326 29.0478 17.1933 28.2042 17.1933 27.1637C17.1933 26.1231 18.0326 25.2796 19.0679 25.2796C20.1032 25.2796 20.9424 26.1231 20.9424 27.1637H25.7627C25.7627 23.4474 22.7653 20.4347 19.0679 20.4347C15.3704 20.4347 12.373 23.4474 12.373 27.1637C12.373 30.88 15.3704 33.8926 19.0679 33.8926V29.0478ZM26.7 36.7188C27.7353 36.7188 28.5745 35.8752 28.5745 34.8347H33.3948C33.3948 38.551 30.3975 41.5637 26.7 41.5637C23.0025 41.5637 20.0052 38.551 20.0052 34.8347C20.0052 31.1183 23.0025 28.1057 26.7 28.1057V32.9506C25.6647 32.9506 24.8254 33.7942 24.8254 34.8347C24.8254 35.8752 25.6647 36.7188 26.7 36.7188Z" fill="#3D3D3B"/>
</svg>
