<svg width="137" height="50" viewBox="0 0 137 50" fill="none" xmlns="http://www.w3.org/2000/svg">
<g clip-path="url(#clip0_454_1204)">
<path d="M20.1807 5.88281L44.3078 29.805V42.6475H33.0485V34.4217L15.5246 17.0465H11.8843V42.6475H0.625V5.88281H20.1807ZM33.0485 18.6413V5.88281H44.3078V18.6413H33.0485Z" fill="#3D3D3B"/>
<path d="M60.7398 28.876V12.988C60.7398 12.748 60.9318 12.532 61.1958 12.532H66.7878C69.6198 12.532 71.9478 14.476 71.9478 16.996C71.9478 18.844 70.2918 20.188 69.1638 20.788C70.4358 21.316 72.3798 22.492 72.3798 24.7C72.3798 27.388 70.0038 29.332 67.1478 29.332H61.1958C60.9318 29.332 60.7398 29.116 60.7398 28.876ZM64.4838 19.348H66.3558C67.2678 19.348 68.0358 18.58 68.0358 17.62C68.0358 16.66 67.2678 15.988 66.3558 15.988H64.4838V19.348ZM64.4838 25.9H66.6678C67.6038 25.9 68.3958 25.132 68.3958 24.148C68.3958 23.188 67.3638 22.468 66.4278 22.468H64.4838V25.9ZM76.3951 28.876V16.06H72.9631C72.6991 16.06 72.5071 15.844 72.5071 15.604V12.988C72.5071 12.748 72.6991 12.532 72.9631 12.532H83.6191C83.8831 12.532 84.0751 12.748 84.0751 12.988V15.604C84.0751 15.844 83.8831 16.06 83.6191 16.06H80.1871V28.876C80.1871 29.116 79.9711 29.332 79.7311 29.332H76.8511C76.6111 29.332 76.3951 29.116 76.3951 28.876ZM84.0025 28.804L86.7145 12.676C86.7385 12.46 86.9545 12.292 87.1465 12.292H87.5305C87.6505 12.292 87.8665 12.388 87.9385 12.532L93.5065 22.9H93.5545L99.1225 12.532C99.1945 12.388 99.4105 12.292 99.5305 12.292H99.9145C100.107 12.292 100.323 12.46 100.347 12.676L103.059 28.804C103.107 29.116 102.891 29.332 102.603 29.332H99.7705C99.5545 29.332 99.3385 29.14 99.3145 28.948L98.2345 21.532H98.1865L94.1545 29.308C94.0825 29.452 93.8665 29.572 93.7465 29.572H93.3145C93.1705 29.572 92.9785 29.452 92.9065 29.308L88.8505 21.532H88.8025L87.7465 28.948C87.7225 29.14 87.5305 29.332 87.2905 29.332H84.4585C84.1705 29.332 83.9545 29.116 84.0025 28.804Z" fill="#3D3D3B"/>
</g>
<defs>
<clipPath id="clip0_454_1204">
<rect width="135.417" height="50" fill="white" transform="translate(0.625)"/>
</clipPath>
</defs>
</svg>
