<svg width="179" height="50" viewBox="0 0 179 50" fill="none" xmlns="http://www.w3.org/2000/svg">
<g clip-path="url(#clip0_454_1207)">
<path d="M24.9546 50H32.5184L30.3164 47.7903C29.7324 47.2043 28.9403 46.875 28.1145 46.875H24.9546C12.9156 46.875 3.15607 37.0812 3.15607 25C3.15607 12.9187 12.9156 3.12501 24.9546 3.125H49.8672C61.9062 3.125 71.6657 12.9187 71.6657 25C71.6657 37.0812 61.9062 46.875 49.8672 46.875H40.5479C39.309 46.875 38.1209 46.3811 37.2448 45.5021L34.6651 42.9132C33.2051 41.4481 31.2248 40.625 29.1601 40.625H24.9546C16.3553 40.625 9.38421 33.6295 9.38421 25C9.38421 16.3705 16.3553 9.375 24.9546 9.375H49.8672C58.4665 9.375 65.4375 16.3705 65.4375 25C65.4375 33.6295 58.4665 40.625 49.8672 40.625H43.8833C42.6444 40.625 41.4563 40.1311 40.5803 39.2521L38.0004 36.6632C36.5404 35.1981 34.5603 34.375 32.4955 34.375H24.9546C19.7951 34.375 15.6124 30.1776 15.6124 25C15.6124 19.8224 19.7951 15.625 24.9546 15.625H49.8672C55.0267 15.625 59.2094 19.8224 59.2094 25C59.2094 30.1145 55.1281 34.2725 50.0555 34.3731L50.0545 34.375H47.7759C46.537 34.375 45.3489 33.8811 44.4728 33.0021L41.893 30.4132C40.6951 29.211 39.1469 28.4411 37.4891 28.2035L37.4109 28.125H24.9546C23.2347 28.125 21.8405 26.7259 21.8405 25C21.8405 23.2741 23.2347 21.875 24.9546 21.875H49.8672C51.587 21.875 52.9812 23.2741 52.9812 25C52.9812 26.7259 51.587 28.125 49.8672 28.125H43.639L45.841 30.3347C46.425 30.9207 47.2171 31.25 48.0429 31.25H49.8672C53.3069 31.25 56.0953 28.4517 56.0953 25C56.0953 21.5483 53.3069 18.75 49.8672 18.75H24.9546C21.5149 18.75 18.7264 21.5483 18.7264 25C18.7264 28.4517 21.5149 31.25 24.9546 31.25H36.3881C37.627 31.25 38.8151 31.7439 39.6911 32.6229L42.2709 35.2118C43.7309 36.6769 45.7111 37.5 47.7759 37.5H50.6457V37.476C57.1624 37.0728 62.3235 31.6411 62.3235 25C62.3235 18.0965 56.7465 12.5 49.8672 12.5H24.9546C18.0752 12.5 12.4983 18.0965 12.4983 25C12.4983 31.9036 18.0752 37.5 24.9546 37.5H32.4955C33.7344 37.5 34.9225 37.9939 35.7985 38.8729L38.3784 41.4618C39.8384 42.9269 41.8185 43.75 43.8833 43.75H49.8672C60.1863 43.75 68.5516 35.3554 68.5516 25C68.5516 14.6446 60.1863 6.25 49.8672 6.25H24.9546C14.6354 6.25 6.27014 14.6446 6.27014 25C6.27014 35.3554 14.6354 43.75 24.9546 43.75H29.1601C30.399 43.75 31.5871 44.2439 32.4631 45.1229L35.0429 47.7118C36.5029 49.1769 38.4831 50 40.5479 50H49.8672C63.626 50 74.7798 38.8071 74.7798 25C74.7798 11.1929 63.626 -1.20706e-06 49.8672 0L24.9546 5.1658e-06C11.1957 6.37286e-06 0.041991 11.1929 0.0419922 25C0.0419934 38.8071 11.1957 50 24.9546 50Z" fill="#3D3D3B"/>
<path d="M165.253 26.875V41.25H162.557V39.7754C162.161 40.4069 161.711 40.8659 161.205 41.1523C160.698 41.4388 160.069 41.582 159.317 41.582C158.077 41.582 157.033 41.0807 156.183 40.0781C155.34 39.069 154.918 37.7767 154.918 36.2012C154.918 34.3848 155.333 32.9557 156.164 31.9141C157.001 30.8724 158.116 30.3516 159.511 30.3516C160.154 30.3516 160.724 30.4948 161.224 30.7812C161.724 31.0612 162.129 31.4518 162.44 31.9531V26.875H165.253ZM157.779 35.9961C157.779 36.9792 157.974 37.7637 158.363 38.3496C158.746 38.9421 159.33 39.2383 160.115 39.2383C160.9 39.2383 161.496 38.9453 161.905 38.3594C162.314 37.7734 162.518 37.015 162.518 36.084C162.518 34.7819 162.191 33.8509 161.535 33.291C161.133 32.9525 160.666 32.7832 160.134 32.7832C159.323 32.7832 158.726 33.0924 158.343 33.7109C157.967 34.3229 157.779 35.0846 157.779 35.9961Z" fill="#3D3D3B"/>
<path d="M148.407 32.666C147.467 32.666 146.821 33.0664 146.471 33.8672C146.289 34.2904 146.198 34.8307 146.198 35.4883V41.25H143.435V30.625H146.111V32.1777C146.468 31.6309 146.805 31.237 147.123 30.9961C147.694 30.5664 148.417 30.3516 149.293 30.3516C150.389 30.3516 151.285 30.6413 151.979 31.2207C152.679 31.7936 153.03 32.7474 153.03 34.082V41.25H150.188V34.7754C150.188 34.2155 150.114 33.7858 149.964 33.4863C149.692 32.9395 149.173 32.666 148.407 32.666Z" fill="#3D3D3B"/>
<path d="M140.721 30.6055V41.25H137.908V30.6055H140.721ZM140.721 26.7676V29.3359H137.908V26.7676H140.721Z" fill="#3D3D3B"/>
<path d="M130.404 41.25L128.74 33.4961L127.057 41.25H124.176L121.198 30.6055H124.176L125.83 38.2422L127.358 30.6055H130.171L131.786 38.2715L133.44 30.6055H136.331L133.256 41.25H130.404Z" fill="#3D3D3B"/>
<path d="M120.344 38.125C120.273 38.7565 119.945 39.3978 119.361 40.0488C118.453 41.084 117.181 41.6016 115.546 41.6016C114.197 41.6016 113.007 41.1654 111.975 40.293C110.944 39.4206 110.428 38.0013 110.428 36.0352C110.428 34.1927 110.892 32.7799 111.819 31.7969C112.754 30.8138 113.964 30.3223 115.449 30.3223C116.331 30.3223 117.126 30.4883 117.833 30.8203C118.541 31.1523 119.124 31.6764 119.585 32.3926C120 33.0241 120.27 33.7565 120.393 34.5898C120.464 35.0781 120.493 35.7812 120.48 36.6992H113.221C113.26 37.7669 113.594 38.5156 114.223 38.9453C114.606 39.2122 115.066 39.3457 115.605 39.3457C116.176 39.3457 116.64 39.1829 116.996 38.8574C117.191 38.6816 117.363 38.4375 117.512 38.125H120.344ZM117.6 34.8633C117.554 34.1276 117.331 33.571 116.928 33.1934C116.533 32.8092 116.04 32.6172 115.449 32.6172C114.807 32.6172 114.307 32.819 113.951 33.2227C113.6 33.6263 113.38 34.1732 113.289 34.8633H117.6Z" fill="#3D3D3B"/>
<path d="M108.832 33.1738C107.716 33.1738 106.967 33.5384 106.584 34.2676C106.37 34.6777 106.263 35.3092 106.263 36.1621V41.25H103.47V30.6055H106.117V32.4609C106.545 31.7513 106.918 31.2663 107.236 31.0059C107.755 30.5697 108.43 30.3516 109.26 30.3516C109.312 30.3516 109.354 30.3548 109.386 30.3613C109.425 30.3613 109.506 30.3646 109.63 30.3711V33.2227C109.455 33.2031 109.299 33.1901 109.163 33.1836C109.026 33.1771 108.916 33.1738 108.832 33.1738Z" fill="#3D3D3B"/>
<path d="M87.9662 41.6016C86.5129 41.6016 85.3776 41.1719 84.5602 40.3125C83.7427 39.4531 83.334 38.4993 83.334 37.4512C83.334 36.5853 83.5481 35.8431 83.9763 35.2246C84.4044 34.6061 85.1051 33.9941 86.0783 33.3887L86.3799 33.2031C85.9647 32.7344 85.6436 32.2559 85.4165 31.7676C85.1895 31.2793 85.0759 30.7715 85.0759 30.2441C85.0759 29.196 85.4263 28.3789 86.1269 27.793C86.8276 27.2005 87.7359 26.9043 88.8517 26.9043C89.8703 26.9043 90.7104 27.207 91.3722 27.8125C92.0404 28.4115 92.3745 29.1797 92.3745 30.1172C92.3745 30.9635 92.1734 31.6504 91.7712 32.1777C91.3754 32.7051 90.7915 33.1934 90.0195 33.6426L92.0534 36.1621C92.2869 35.8236 92.4654 35.4557 92.5886 35.0586C92.7184 34.6615 92.7865 34.2415 92.793 33.7988H95.255C95.2161 34.6712 95.0085 35.5534 94.6322 36.4453C94.4246 36.9466 94.0873 37.5 93.6202 38.1055L96.2282 41.25H92.8611L91.8685 40.0293C91.3884 40.4785 90.9408 40.8105 90.5255 41.0254C89.786 41.4095 88.9328 41.6016 87.9662 41.6016ZM87.8105 34.9805C87.1163 35.4427 86.6557 35.8496 86.4286 36.2012C86.208 36.5527 86.0977 36.9401 86.0977 37.3633C86.0977 37.8385 86.2891 38.2747 86.6719 38.6719C87.0611 39.069 87.5574 39.2676 88.1608 39.2676C88.6149 39.2676 89.0431 39.1634 89.4454 38.9551C89.8541 38.7402 90.1849 38.5026 90.438 38.2422L87.8105 34.9805ZM87.6256 30.1465C87.6256 30.4069 87.7164 30.6803 87.898 30.9668C88.0148 31.1556 88.2678 31.4909 88.6571 31.9727C89.0464 31.6992 89.3253 31.4681 89.494 31.2793C89.8184 30.9277 89.9806 30.5469 89.9806 30.1367C89.9806 29.8372 89.8833 29.5703 89.6886 29.3359C89.494 29.1016 89.1988 28.9844 88.8031 28.9844C88.5565 28.9844 88.3262 29.0527 88.1121 29.1895C87.7878 29.3913 87.6256 29.7103 87.6256 30.1465Z" fill="#3D3D3B"/>
<path d="M171.551 19.2676V21.3477L170.238 21.3965C168.927 21.4421 168.032 21.2142 167.552 20.7129C167.24 20.3939 167.085 19.9023 167.085 19.2383V12.6855H165.605V10.7031H167.085V7.73438H169.829V10.7031H171.551V12.6855H169.829V18.3105C169.829 18.7467 169.884 19.0202 169.994 19.1309C170.105 19.235 170.442 19.2871 171.006 19.2871C171.091 19.2871 171.178 19.2871 171.269 19.2871C171.367 19.2806 171.461 19.2741 171.551 19.2676Z" fill="#3D3D3B"/>
<path d="M165.331 21.25H161.983L159.443 16.6992L158.295 17.9004V21.25H155.57V6.9043H158.295V14.6582L161.75 10.6543H165.185L161.477 14.7266L165.331 21.25Z" fill="#3D3D3B"/>
<path d="M153.684 14.4238H150.843C150.791 14.0267 150.658 13.6686 150.444 13.3496C150.132 12.9199 149.649 12.7051 148.994 12.7051C148.06 12.7051 147.421 13.1706 147.077 14.1016C146.895 14.5964 146.804 15.2539 146.804 16.0742C146.804 16.8555 146.895 17.4837 147.077 17.959C147.408 18.8444 148.03 19.2871 148.945 19.2871C149.594 19.2871 150.055 19.1113 150.327 18.7598C150.6 18.4082 150.765 17.9525 150.823 17.3926H153.655C153.59 18.2389 153.285 19.0397 152.74 19.7949C151.871 21.0124 150.583 21.6211 148.877 21.6211C147.171 21.6211 145.915 21.1133 145.111 20.0977C144.307 19.082 143.904 17.7637 143.904 16.1426C143.904 14.3132 144.349 12.8906 145.238 11.875C146.126 10.8594 147.352 10.3516 148.916 10.3516C150.246 10.3516 151.333 10.651 152.176 11.25C153.026 11.849 153.529 12.9069 153.684 14.4238Z" fill="#3D3D3B"/>
<path d="M133.812 11.7578C134.546 10.8203 135.804 10.3516 137.588 10.3516C138.75 10.3516 139.781 10.5827 140.683 11.0449C141.585 11.5072 142.036 12.3796 142.036 13.6621V18.5449C142.036 18.8835 142.042 19.2936 142.055 19.7754C142.075 20.14 142.13 20.3874 142.22 20.5176C142.311 20.6478 142.448 20.7552 142.629 20.8398V21.25H139.612C139.528 21.0352 139.47 20.8333 139.437 20.6445C139.405 20.4557 139.379 20.2409 139.359 20C138.977 20.4167 138.535 20.7715 138.036 21.0645C137.439 21.4095 136.764 21.582 136.012 21.582C135.052 21.582 134.257 21.3086 133.628 20.7617C133.005 20.2083 132.693 19.4271 132.693 18.418C132.693 17.1094 133.196 16.1621 134.202 15.5762C134.753 15.2572 135.564 15.0293 136.635 14.8926L137.579 14.7754C138.091 14.7103 138.458 14.6289 138.678 14.5312C139.074 14.362 139.272 14.0983 139.272 13.7402C139.272 13.304 139.119 13.0046 138.814 12.8418C138.516 12.6725 138.075 12.5879 137.491 12.5879C136.836 12.5879 136.372 12.7507 136.099 13.0762C135.905 13.3171 135.775 13.6426 135.71 14.0527H133.034C133.092 13.1217 133.352 12.3568 133.812 11.7578ZM135.876 19.2383C136.135 19.4531 136.453 19.5605 136.829 19.5605C137.426 19.5605 137.974 19.3848 138.474 19.0332C138.98 18.6816 139.243 18.0404 139.262 17.1094V16.0742C139.087 16.1849 138.909 16.276 138.727 16.3477C138.552 16.4128 138.308 16.4746 137.997 16.5332L137.374 16.6504C136.79 16.7546 136.372 16.8815 136.119 17.0312C135.691 17.2852 135.477 17.679 135.477 18.2129C135.477 18.6882 135.61 19.0299 135.876 19.2383Z" fill="#3D3D3B"/>
<path d="M130.98 13.1738C129.864 13.1738 129.115 13.5384 128.732 14.2676C128.518 14.6777 128.411 15.3092 128.411 16.1621V21.25H125.618V10.6055H128.265V12.4609C128.693 11.7513 129.066 11.2663 129.384 11.0059C129.903 10.5697 130.578 10.3516 131.408 10.3516C131.46 10.3516 131.502 10.3548 131.535 10.3613C131.574 10.3613 131.655 10.3646 131.778 10.3711V13.2227C131.603 13.2031 131.447 13.1901 131.311 13.1836C131.175 13.1771 131.065 13.1738 130.98 13.1738Z" fill="#3D3D3B"/>
<path d="M123.867 19.2676V21.3477L122.553 21.3965C121.243 21.4421 120.347 21.2142 119.867 20.7129C119.556 20.3939 119.4 19.9023 119.4 19.2383V12.6855H117.921V10.7031H119.4V7.73438H122.144V10.7031H123.867V12.6855H122.144V18.3105C122.144 18.7467 122.2 19.0202 122.31 19.1309C122.42 19.235 122.757 19.2871 123.322 19.2871C123.406 19.2871 123.494 19.2871 123.585 19.2871C123.682 19.2806 123.776 19.2741 123.867 19.2676Z" fill="#3D3D3B"/>
<path d="M112.589 21.5332C111.713 21.5332 111.009 21.3574 110.477 21.0059C110.159 20.7975 109.815 20.4329 109.446 19.9121V21.25H106.73V6.875H109.494V11.9922C109.845 11.4974 110.231 11.1198 110.652 10.8594C111.152 10.5339 111.788 10.3711 112.56 10.3711C113.954 10.3711 115.044 10.8757 115.829 11.8848C116.621 12.8939 117.017 14.196 117.017 15.791C117.017 17.4447 116.627 18.8151 115.849 19.9023C115.07 20.9896 113.984 21.5332 112.589 21.5332ZM114.107 16.084C114.107 15.3288 114.01 14.7038 113.815 14.209C113.445 13.2715 112.764 12.8027 111.771 12.8027C110.766 12.8027 110.075 13.2617 109.699 14.1797C109.504 14.668 109.407 15.2995 109.407 16.0742C109.407 16.9857 109.608 17.7409 110.01 18.3398C110.412 18.9388 111.025 19.2383 111.849 19.2383C112.563 19.2383 113.118 18.9486 113.513 18.3691C113.909 17.7897 114.107 17.028 114.107 16.084Z" fill="#3D3D3B"/>
<path d="M101.446 19.7461C101.42 19.7786 101.355 19.8763 101.251 20.0391C101.147 20.2018 101.024 20.3451 100.881 20.4688C100.446 20.8594 100.025 21.1263 99.6161 21.2695C99.2138 21.4128 98.7402 21.4844 98.1953 21.4844C96.6253 21.4844 95.5678 20.918 95.0228 19.7852C94.7179 19.1602 94.5654 18.2389 94.5654 17.0215V10.6055H97.407V17.0215C97.407 17.627 97.4784 18.0827 97.6211 18.3887C97.8741 18.929 98.3704 19.1992 99.11 19.1992C100.057 19.1992 100.706 18.8151 101.056 18.0469C101.238 17.6302 101.329 17.0801 101.329 16.3965V10.6055H104.141V21.25H101.446V19.7461Z" fill="#3D3D3B"/>
<path d="M90.8568 11.0938C91.6873 11.6276 92.1641 12.5456 92.2874 13.8477H89.5139C89.475 13.4896 89.3744 13.2064 89.2122 12.998C88.9073 12.6204 88.3883 12.4316 87.6552 12.4316C87.0518 12.4316 86.6204 12.526 86.3609 12.7148C86.1079 12.9036 85.9814 13.125 85.9814 13.3789C85.9814 13.6979 86.1176 13.929 86.3901 14.0723C86.6626 14.222 87.626 14.4792 89.2803 14.8438C90.3832 15.1042 91.2104 15.498 91.7619 16.0254C92.3068 16.5592 92.5793 17.2266 92.5793 18.0273C92.5793 19.082 92.1868 19.9447 91.4018 20.6152C90.6233 21.2793 89.4166 21.6113 87.7817 21.6113C86.1144 21.6113 84.8817 21.2598 84.0837 20.5566C83.2922 19.847 82.8965 18.9453 82.8965 17.8516H85.7089C85.7673 18.3464 85.8938 18.6979 86.0884 18.9062C86.4323 19.2773 87.068 19.4629 87.9958 19.4629C88.5407 19.4629 88.9722 19.3815 89.2901 19.2188C89.6144 19.056 89.7766 18.8118 89.7766 18.4863C89.7766 18.1738 89.6469 17.9362 89.3874 17.7734C89.1279 17.6107 88.1645 17.3307 86.4971 16.9336C85.2969 16.6341 84.4503 16.2598 83.9572 15.8105C83.4642 15.3678 83.2176 14.7298 83.2176 13.8965C83.2176 12.9134 83.6004 12.0703 84.3659 11.3672C85.138 10.6576 86.2214 10.3027 87.6163 10.3027C88.9397 10.3027 90.0199 10.5664 90.8568 11.0938Z" fill="#3D3D3B"/>
</g>
<defs>
<clipPath id="clip0_454_1207">
<rect width="178.125" height="50" fill="white" transform="translate(0.0419922)"/>
</clipPath>
</defs>
</svg>
