<svg width="177" height="50" viewBox="0 0 177 50" fill="none" xmlns="http://www.w3.org/2000/svg">
<path fill-rule="evenodd" clip-rule="evenodd" d="M25.1107 48.9484C38.5211 48.9484 49.3923 38.0285 49.3923 24.5582C49.3923 11.0879 38.5211 0.167969 25.1107 0.167969C11.7003 0.167969 0.829102 11.0879 0.829102 24.5582C0.829102 38.0285 11.7003 48.9484 25.1107 48.9484ZM32.6857 11.53C33.0545 10.2144 31.7834 9.43642 30.6227 10.2671L14.4184 21.8626C13.1596 22.7634 13.3576 24.5582 14.7159 24.5582H18.9829V24.525H27.2991L20.523 26.9266L17.5357 37.5865C17.167 38.9021 18.4379 39.68 19.5988 38.8493L35.803 27.2539C37.0619 26.3531 36.8638 24.5582 35.5056 24.5582H29.0348L32.6857 11.53Z" fill="#3D3D3B"/>
<path d="M142.015 36.586V11.6934H148.61V24.6007L150.037 22.8251L154.151 18.0104H162.105L155.034 25.4543L162.139 36.586H154.491L151.567 31.7714L150.479 29.7909L148.61 31.669V36.586H142.015Z" fill="#3D3D3B"/>
<path d="M130.594 36.9285C124.883 36.9285 121.178 33.1041 121.178 27.265C121.178 21.426 124.917 17.6699 130.764 17.6699C135.795 17.6699 139.365 20.7089 139.433 25.1138H133.11C132.872 23.6114 131.92 22.9285 130.628 22.9285C128.622 22.9285 127.773 24.6016 127.773 27.2992C127.773 30.3724 128.894 31.6699 130.594 31.6699C132.192 31.6699 133.008 30.748 133.178 29.4846H139.467C139.331 33.9919 135.659 36.9285 130.594 36.9285Z" fill="#3D3D3B"/>
<path d="M112.005 16.0641V11.6934H118.498V16.0641H112.005ZM112.005 36.586V18.0104H118.498V36.586H112.005Z" fill="#3D3D3B"/>
<path d="M96.3199 36.9268C91.9346 36.9268 89.793 34.3317 89.793 29.722V18.0098H96.2859V27.9464C96.2859 30.4049 97.0337 31.6683 98.9714 31.6683C101.011 31.6683 101.997 30.0293 101.997 28.5268V18.0098H108.49V36.5854H102.235L101.997 33.5464H101.725C100.875 35.8 98.7675 36.9268 96.3199 36.9268Z" fill="#3D3D3B"/>
<path d="M84.331 42.6296L73.8607 36.9272C66.586 36.6881 61.7588 32.215 61.7588 24.1223C61.7588 15.8589 66.8239 11.3516 74.4047 11.3516C82.0194 11.3516 87.0845 15.8589 87.0845 24.1223C87.0845 29.9613 84.433 34.0247 79.7078 35.7321L85.4188 36.7223V42.6296H84.331ZM74.4047 31.054C77.7701 31.054 80.0137 29.0394 80.0137 24.1223C80.0137 19.2394 77.7701 17.2247 74.4047 17.2247C71.0732 17.2247 68.8296 19.2052 68.8296 24.1223C68.8296 29.0735 71.0732 31.054 74.4047 31.054Z" fill="#3D3D3B"/>
</svg>
